<?xml version="1.0" standalone="no"?>
<!DOCTYPE svg PUBLIC "-//W3C//DTD SVG 20010904//EN"
 "http://www.w3.org/TR/2001/REC-SVG-20010904/DTD/svg10.dtd">
<svg version="1.0" xmlns="http://www.w3.org/2000/svg"
 width="356.000000pt" height="356.000000pt" viewBox="0 0 356.000000 356.000000"
 preserveAspectRatio="xMidYMid meet">

<g transform="translate(0.000000,356.000000) scale(0.100000,-0.100000)"
fill="#000000" stroke="none">
<path d="M2965 3511 c-37 -22 -85 -77 -85 -97 0 -12 -85 -14 -582 -14 -644 0
-642 0 -786 -66 -40 -18 -171 -87 -291 -153 l-219 -121 -353 0 c-404 0 -403 0
-449 -81 -22 -39 -25 -56 -25 -144 0 -82 4 -106 20 -135 17 -29 70 -67 117
-82 4 -2 -50 -203 -122 -448 l-130 -444 0 -288 0 -288 25 -10 c17 -6 33 -6 50
2 l25 11 0 271 0 271 119 405 c65 223 126 431 135 462 l16 58 173 2 c168 3
172 4 182 26 9 21 15 22 125 22 110 0 116 -1 125 -22 9 -21 18 -23 125 -29 63
-4 193 -7 289 -8 161 -1 173 -2 165 -18 -4 -10 -10 -46 -12 -80 -3 -52 1 -73
23 -120 30 -67 86 -129 132 -149 47 -20 140 -17 190 6 24 10 115 76 204 145
89 69 165 122 169 118 12 -13 247 -703 261 -768 11 -48 14 -207 13 -786 -1
-652 -3 -728 -18 -757 -32 -62 34 -59 -1193 -65 -1049 -4 -1125 -4 -1155 12
-65 35 -68 49 -68 403 0 311 0 317 -21 332 -16 11 -28 12 -50 4 l-29 -10 0
-337 0 -337 26 -52 c28 -55 92 -107 148 -117 17 -4 540 -5 1161 -3 l1130 3 40
21 c48 26 90 67 113 109 15 27 17 102 17 800 0 715 -1 775 -18 835 -15 52
-227 677 -252 741 -5 13 4 17 51 22 81 8 177 58 215 110 35 48 59 101 59 128
0 16 8 19 59 19 l59 0 22 -45 c43 -89 106 -109 328 -103 166 4 203 15 250 76
l27 35 3 311 c2 308 2 311 -21 351 -12 22 -40 50 -62 62 -38 21 -51 23 -230
23 -168 0 -194 -2 -220 -19z m-617 -221 l522 0 0 -180 0 -180 -89 0 c-106 0
-113 -5 -130 -87 -24 -124 -95 -177 -242 -178 l-86 -1 -224 -164 c-197 -145
-229 -164 -263 -164 -33 -1 -44 6 -76 42 -43 48 -62 108 -49 155 6 21 82 110
229 267 121 129 220 238 220 243 0 4 -123 8 -272 8 -150 1 -360 4 -466 8
l-193 6 158 86 c87 47 178 94 203 104 69 26 161 45 200 40 19 -3 270 -5 558
-5z"/>
<path d="M1110 2395 c-86 -22 -130 -43 -142 -70 -10 -22 -62 -55 -87 -55 -16
0 -13 -16 5 -31 15 -12 13 -15 -22 -25 -41 -12 -43 -17 -28 -77 5 -21 1 -34
-15 -51 l-22 -24 19 -81 c16 -68 17 -83 6 -92 -21 -17 -17 -53 16 -169 27 -94
47 -130 72 -130 4 0 8 -8 8 -17 0 -24 36 -136 54 -172 9 -16 43 -54 77 -85 61
-55 62 -56 33 -56 -39 0 -54 -16 -54 -57 0 -42 23 -54 89 -46 43 5 51 3 51
-10 0 -14 -22 -69 -86 -213 -5 -12 53 -41 62 -31 3 3 18 38 34 78 l29 74 1
-87 0 -88 36 0 37 0 -6 112 c-4 62 -9 125 -13 141 l-6 27 61 0 c56 0 61 2 67
25 3 14 3 36 0 50 -5 21 -12 25 -42 25 l-36 0 49 39 c92 72 122 121 144 230 9
45 16 61 34 69 24 11 37 46 73 191 14 57 14 67 0 91 -13 23 -13 32 -1 75 11
35 12 54 4 69 -5 12 -17 49 -25 83 -21 85 -49 136 -102 190 -92 91 -245 132
-374 98z m251 -62 c128 -60 180 -140 187 -285 3 -52 1 -88 -5 -88 -5 0 -17 26
-27 58 -10 31 -25 66 -32 77 -13 18 -14 17 -14 -17 0 -20 9 -55 20 -79 34 -76
35 -76 -90 -77 -83 0 -116 -4 -134 -16 -34 -22 -88 -23 -116 -3 -19 13 -46 17
-117 17 -55 0 -94 4 -99 11 -3 6 5 23 19 37 13 15 27 43 31 62 11 57 46 120
77 135 33 18 102 20 131 4 16 -9 24 -8 36 5 21 20 6 37 -61 71 -55 27 -91 31
-150 14 -59 -16 -55 -4 9 32 47 27 54 34 38 40 -18 7 -18 7 0 14 44 18 86 24
157 21 60 -2 89 -9 140 -33z m-301 -121 c0 -5 -11 -14 -24 -20 -32 -14 -112
-122 -125 -169 -6 -21 -11 -52 -11 -70 0 -28 -15 -52 -25 -42 -2 2 -9 32 -16
67 -12 57 -11 66 5 97 13 23 17 44 13 65 -5 24 -3 30 11 30 9 1 46 12 82 25
71 26 90 29 90 17z m-115 -312 c3 -5 -1 -10 -10 -10 -9 0 -13 5 -10 10 3 6 8
10 10 10 2 0 7 -4 10 -10z m550 0 c3 -5 -1 -10 -10 -10 -9 0 -13 5 -10 10 3 6
8 10 10 10 2 0 7 -4 10 -10z m-505 -29 c-13 -11 -28 -17 -33 -14 -13 8 14 33
37 33 20 0 20 -1 -4 -19z m458 1 c3 -9 -3 -13 -19 -10 -12 1 -24 9 -27 16 -3
9 3 13 19 10 12 -1 24 -9 27 -16z m-348 -1 c0 -5 -15 -11 -32 -13 -18 -3 -42
-8 -53 -12 -17 -7 -17 -5 4 13 23 21 81 29 81 12z m301 -17 l24 -27 -32 17
c-18 9 -41 16 -53 16 -12 0 -18 5 -15 10 12 19 51 10 76 -16z m119 -26 c0 -35
2 -39 15 -28 8 7 15 18 14 24 -3 25 2 36 16 36 21 0 18 -39 -8 -130 -18 -61
-27 -77 -49 -88 -20 -9 -29 -23 -33 -50 -15 -92 -29 -134 -56 -172 -37 -50
-86 -82 -116 -75 -16 4 -23 1 -23 -10 0 -19 -40 -95 -50 -95 -11 0 -60 59 -70
84 -11 29 12 134 28 129 17 -6 15 26 -3 33 -30 12 -14 24 33 24 26 0 61 4 77
8 40 12 55 5 55 -23 0 -43 16 -35 38 18 36 90 34 99 -29 165 -56 56 -69 63
-69 32 0 -23 -28 -40 -69 -40 -31 0 -61 22 -61 45 0 24 30 129 39 138 11 11
31 0 31 -17 0 -8 7 -19 15 -26 12 -10 16 -9 21 3 4 12 17 14 62 10 98 -8 133
-40 70 -62 -23 -8 -29 -14 -21 -22 8 -8 19 -7 40 3 21 10 33 27 46 68 27 82
57 91 57 18z m-634 1 c1 -13 4 -48 9 -76 8 -63 -9 -73 -24 -15 -21 79 -23 92
-17 108 9 23 31 11 32 -17z m229 -9 c7 0 12 -10 11 -21 -1 -21 -13 -32 -48
-43 -22 -7 -24 -26 -3 -26 31 0 14 -27 -33 -53 -41 -23 -67 -15 -81 25 -16 45
-14 51 14 44 30 -8 32 4 5 29 -26 23 -26 38 0 30 11 -4 29 0 42 10 15 10 34
14 52 11 16 -4 34 -6 41 -6z m18 -115 c3 -16 0 -24 -7 -22 -14 4 -21 47 -8 47
5 0 12 -11 15 -25z m200 -80 l39 -34 -37 -7 c-21 -4 -58 -2 -83 4 -27 6 -57 6
-76 1 -39 -11 -97 -11 -115 0 -10 7 -2 15 32 35 45 26 45 27 82 9 36 -17 38
-17 73 4 21 12 39 22 42 22 3 0 22 -15 43 -34z m-318 -52 c19 -107 33 -133 53
-96 8 14 12 10 21 -23 15 -53 14 -64 -6 -64 -26 0 -97 81 -112 128 -11 32 -12
48 -3 67 17 37 40 31 47 -12z m250 -23 c-28 -12 -93 -12 -100 0 -4 6 17 10 57
9 44 0 57 -3 43 -9z"/>
<path d="M1650 784 c-100 -27 -162 -88 -179 -177 -19 -104 33 -191 131 -218
47 -12 214 -7 227 7 5 5 11 22 15 37 l7 29 -63 -7 c-74 -8 -137 12 -162 50
-22 33 -20 112 3 155 10 19 32 43 50 53 58 35 131 21 131 -24 0 -14 7 -19 25
-19 20 0 26 7 35 41 6 22 10 48 8 57 -6 32 -135 41 -228 16z"/>
<path d="M623 775 c-3 -9 2 -24 12 -35 16 -18 16 -24 -5 -122 -30 -144 -38
-165 -67 -186 -18 -13 -24 -25 -20 -36 10 -25 195 -19 211 6 8 13 6 21 -6 35
-14 15 -15 27 -7 67 5 27 11 51 12 53 2 2 24 -27 48 -64 61 -93 80 -105 170
-107 67 -1 74 1 77 19 2 13 -5 24 -20 30 -24 11 -138 152 -138 172 0 16 146
131 176 139 15 4 24 13 24 25 0 17 -8 19 -90 19 -72 0 -92 -3 -96 -15 -4 -8
-1 -21 5 -29 9 -10 -5 -26 -64 -75 -50 -42 -75 -57 -75 -46 0 36 23 105 41
121 40 36 25 44 -81 44 -81 0 -102 -3 -107 -15z"/>
<path d="M1120 773 c0 -9 7 -24 15 -33 14 -16 12 -33 -20 -180 -19 -89 -33
-166 -29 -171 3 -5 39 -9 79 -9 65 0 76 3 85 21 9 16 8 24 -4 38 -13 14 -14
27 -8 57 l8 39 71 3 c71 3 72 3 78 33 4 17 5 33 2 36 -3 2 -33 7 -66 10 -67 6
-69 9 -50 76 10 37 10 37 62 37 56 0 77 -12 77 -43 0 -13 6 -18 22 -15 17 2
25 14 35 53 7 28 13 53 13 58 0 4 -83 7 -185 7 -166 0 -185 -2 -185 -17z"/>
</g>
</svg>
